<?xml version="1.0" standalone="no"?>
<!DOCTYPE svg PUBLIC "-//W3C//DTD SVG 20010904//EN"
 "http://www.w3.org/TR/2001/REC-SVG-20010904/DTD/svg10.dtd">
<svg version="1.0" xmlns="http://www.w3.org/2000/svg"
 width="710.000000pt" height="243.000000pt" viewBox="0 0 710.000000 243.000000"
 preserveAspectRatio="xMidYMid meet">

<g transform="translate(0.000000,243.000000) scale(0.100000,-0.100000)"
fill="#000000" stroke="none">
<path d="M100 1620 l0 -650 175 0 175 0 0 158 c0 86 3 167 6 180 6 21 11 22
110 22 86 0 104 -3 104 -15 0 -8 7 -15 15 -15 9 0 15 -9 15 -25 0 -16 6 -25
15 -25 8 0 15 -7 15 -15 0 -8 4 -15 10 -15 5 0 13 -12 16 -27 4 -16 18 -38 31
-50 12 -12 23 -29 23 -38 0 -9 7 -18 15 -21 8 -4 15 -12 15 -20 0 -8 7 -14 15
-14 8 0 15 -9 15 -20 0 -11 9 -29 20 -40 19 -19 33 -20 205 -20 158 0 185 2
185 15 0 8 -7 15 -15 15 -8 0 -15 7 -15 15 0 8 -4 15 -9 15 -5 0 -12 11 -15
25 -4 14 -11 25 -16 25 -6 0 -10 7 -10 15 0 8 -7 15 -15 15 -8 0 -15 9 -15 20
0 12 -11 31 -24 43 -13 12 -27 33 -31 47 -4 14 -18 35 -31 47 -13 12 -24 31
-24 43 0 11 -7 20 -15 20 -8 0 -15 6 -15 14 0 8 -6 17 -12 20 -10 5 -10 7 -1
12 7 3 13 12 13 20 0 8 10 14 25 14 14 0 28 7 31 15 4 8 12 15 20 15 8 0 14 5
14 11 0 14 25 39 39 39 6 0 11 6 11 14 0 8 7 16 15 20 8 3 15 15 15 26 0 12 7
28 15 36 8 9 15 24 15 35 0 10 5 19 10 19 6 0 10 55 10 145 0 90 -4 145 -10
145 -5 0 -10 9 -10 19 0 11 -7 26 -15 35 -8 8 -15 24 -15 36 0 11 -7 23 -15
26 -8 4 -15 11 -15 16 0 13 -56 68 -69 68 -6 0 -11 7 -11 15 0 8 -7 15 -15 15
-8 0 -15 4 -15 9 0 5 -13 12 -30 16 -16 4 -30 11 -30 16 0 5 -11 9 -24 9 -14
0 -31 7 -40 15 -9 10 -34 15 -69 15 -35 0 -57 5 -59 13 -4 9 -86 13 -356 15
l-352 3 0 -651z m630 360 c0 -5 18 -13 40 -16 22 -4 40 -10 40 -15 0 -5 7 -9
15 -9 8 0 15 -7 15 -15 0 -8 7 -15 15 -15 8 0 15 -6 15 -14 0 -8 6 -16 13 -18
8 -3 12 -31 12 -93 0 -62 -4 -90 -12 -92 -7 -3 -13 -11 -13 -19 0 -8 -7 -14
-15 -14 -8 0 -15 -7 -15 -15 0 -8 -6 -15 -14 -15 -8 0 -16 -6 -18 -12 -4 -10
-48 -13 -179 -13 l-174 0 -3 160 c-2 88 0 175 3 193 l6 32 134 0 c82 0 135 -4
135 -10z"/>
<path d="M2330 1620 l0 -650 353 0 c294 1 355 3 371 15 12 9 42 15 72 15 29 0
54 5 56 11 2 5 22 13 46 16 23 3 42 10 42 14 0 5 11 9 25 9 16 0 25 6 25 15 0
8 9 15 20 15 12 0 31 11 44 25 13 14 28 25 33 25 17 0 93 79 93 95 0 9 7 18
15 21 8 4 15 12 15 20 0 8 7 14 15 14 9 0 15 9 15 25 0 14 4 25 10 25 5 0 13
18 16 40 4 22 10 40 14 40 4 0 10 26 12 57 3 31 10 59 16 61 8 2 12 34 12 92
0 58 -4 90 -12 92 -6 2 -13 30 -16 61 -2 31 -8 57 -12 57 -4 0 -10 18 -14 40
-3 22 -11 40 -16 40 -6 0 -10 11 -10 25 0 16 -6 25 -15 25 -8 0 -15 5 -15 10
0 6 -11 21 -25 34 -14 13 -25 28 -25 33 0 17 -48 63 -65 63 -9 0 -18 7 -21 15
-4 8 -12 15 -20 15 -8 0 -14 7 -14 15 0 9 -9 15 -25 15 -14 0 -25 4 -25 9 0 5
-13 12 -30 16 -16 4 -30 10 -30 15 0 4 -18 10 -40 14 -22 3 -40 11 -40 16 0 6
-30 10 -69 10 -47 0 -71 4 -73 13 -4 9 -86 13 -356 15 l-352 3 0 -651z m630
361 c0 -5 25 -13 55 -16 30 -4 55 -11 55 -16 0 -5 11 -9 25 -9 14 0 28 -7 31
-15 4 -8 12 -15 20 -15 8 0 14 -4 14 -10 0 -5 11 -12 25 -16 18 -4 25 -13 25
-30 0 -15 6 -24 15 -24 8 0 15 -9 15 -20 0 -11 4 -20 9 -20 5 0 12 -22 16 -50
4 -27 11 -50 16 -50 5 0 9 -31 9 -70 0 -38 -4 -70 -9 -70 -5 0 -12 -25 -16
-55 -3 -30 -11 -55 -16 -55 -5 0 -9 -7 -9 -15 0 -8 -7 -15 -15 -15 -9 0 -15
-9 -15 -24 0 -17 -7 -26 -25 -30 -14 -4 -25 -11 -25 -16 0 -6 -7 -10 -15 -10
-8 0 -15 -7 -15 -15 0 -10 -10 -15 -30 -15 -16 0 -30 -4 -30 -9 0 -5 -25 -13
-55 -16 -30 -4 -55 -11 -55 -16 0 -5 -60 -9 -134 -9 -113 0 -135 2 -140 16 -3
9 -6 164 -6 345 0 213 -4 329 -10 329 -5 0 -10 5 -10 10 0 6 7 10 15 10 8 0
15 7 15 15 0 13 22 15 135 15 76 0 135 -4 135 -9z"/>
<path d="M1664 1345 c-4 -8 -17 -15 -30 -15 -15 0 -24 -6 -24 -15 0 -8 -4 -15
-10 -15 -5 0 -12 -11 -16 -25 -3 -14 -10 -25 -15 -25 -5 0 -9 -38 -9 -85 0
-47 4 -85 9 -85 5 0 12 -11 15 -25 4 -14 11 -25 16 -25 6 0 10 -7 10 -15 0 -9
9 -15 25 -15 16 0 25 -6 25 -15 0 -12 18 -15 100 -15 82 0 100 3 100 15 0 8 5
15 11 15 18 0 65 54 72 83 4 15 12 27 17 27 6 0 10 25 10 55 0 30 -4 55 -10
55 -5 0 -13 12 -17 27 -7 29 -54 83 -72 83 -6 0 -11 7 -11 15 0 12 -17 15 -95
15 -76 0 -97 -3 -101 -15z"/>
<path d="M4040 1345 c0 -10 -10 -15 -30 -15 -20 0 -30 -5 -30 -15 0 -8 -4 -15
-10 -15 -5 0 -12 -11 -16 -25 -3 -14 -10 -25 -15 -25 -5 0 -9 -38 -9 -85 0
-47 4 -85 9 -85 5 0 12 -11 15 -25 4 -14 11 -25 16 -25 6 0 10 -7 10 -15 0 -9
9 -15 24 -15 13 0 26 -7 30 -15 4 -12 25 -15 101 -15 78 0 95 3 95 15 0 9 9
15 25 15 16 0 25 6 25 15 0 8 7 15 15 15 9 0 15 9 15 25 0 14 7 28 15 31 11 5
15 23 15 79 0 56 -4 74 -15 79 -8 3 -15 17 -15 31 0 16 -6 25 -15 25 -8 0 -15
7 -15 15 0 9 -9 15 -25 15 -16 0 -25 6 -25 15 0 12 -17 15 -95 15 -78 0 -95
-3 -95 -15z"/>
<path d="M4505 530 c-4 -16 -11 -30 -16 -30 -5 0 -9 -11 -9 -25 0 -16 -6 -25
-15 -25 -11 0 -15 -11 -15 -40 0 -29 -4 -40 -15 -40 -10 0 -15 -10 -15 -30 0
-16 -4 -30 -10 -30 -5 0 -10 -7 -10 -15 0 -8 5 -15 10 -15 6 0 10 7 10 15 0 8
7 15 15 15 9 0 15 9 15 24 0 27 21 36 91 36 52 0 99 -33 99 -70 0 -11 7 -20
15 -20 10 0 15 10 15 30 0 20 -5 30 -15 30 -10 0 -15 10 -15 30 0 17 -4 30 -9
30 -5 0 -12 16 -15 35 -4 19 -11 35 -16 35 -6 0 -10 9 -10 19 0 11 -7 26 -15
35 -8 8 -15 19 -15 25 0 6 -11 11 -24 11 -19 0 -26 -7 -31 -30z m55 -50 c0
-20 5 -30 15 -30 10 0 15 -10 15 -30 0 -30 -1 -30 -55 -30 -42 0 -55 3 -55 15
0 8 4 15 10 15 5 0 13 18 16 39 6 36 14 45 47 50 4 0 7 -12 7 -29z"/>
<path d="M4839 558 c-5 -21 -9 -221 -4 -245 12 -64 25 -32 25 61 0 52 4 97 8
100 20 12 52 -7 52 -30 0 -15 6 -24 15 -24 8 0 15 -6 15 -12 0 -7 18 -29 40
-48 22 -19 40 -42 40 -51 0 -16 19 -29 41 -29 5 0 9 62 9 141 0 108 -3 140
-12 137 -9 -3 -14 -34 -16 -96 -3 -90 -3 -92 -27 -92 -20 0 -25 5 -25 25 0 16
-6 25 -15 25 -8 0 -15 5 -15 11 0 7 -11 22 -25 35 -14 13 -25 28 -25 34 0 5
-4 10 -10 10 -5 0 -12 11 -16 25 -4 18 -13 25 -30 25 -13 0 -24 -1 -25 -2z"/>
<path d="M5316 545 c-8 -8 -19 -15 -24 -15 -5 0 -13 -11 -16 -25 -4 -14 -11
-25 -16 -25 -6 0 -10 -27 -10 -60 0 -47 3 -60 15 -60 8 0 15 -5 15 -11 0 -14
25 -39 39 -39 6 0 11 -7 11 -15 0 -12 14 -15 70 -15 56 0 70 3 70 15 0 8 7 15
15 15 12 0 15 13 15 55 0 42 -3 55 -15 55 -11 0 -15 -11 -15 -37 -1 -57 -18
-73 -78 -73 -35 0 -52 4 -56 15 -3 8 -12 15 -21 15 -9 0 -15 9 -15 25 0 14 -4
25 -10 25 -5 0 -10 18 -10 40 0 22 5 40 10 40 6 0 10 7 10 15 0 8 7 15 15 15
8 0 15 7 15 15 0 12 14 15 69 15 46 0 71 -4 74 -12 2 -8 8 -9 13 -4 5 5 4 11
-3 13 -7 3 -13 11 -13 19 0 21 -133 20 -154 -1z"/>
<path d="M5690 420 l0 -140 95 0 c78 0 95 3 95 15 0 12 -16 15 -80 15 l-80 0
0 55 0 55 71 0 c52 0 70 3 67 13 -3 7 -29 13 -71 15 l-67 3 0 39 0 40 80 0
c64 0 80 3 80 15 0 12 -17 15 -95 15 l-95 0 0 -140z"/>
<path d="M6070 420 l0 -140 85 0 c69 0 85 3 85 15 0 12 -14 15 -70 15 l-70 0
0 125 c0 104 -2 125 -15 125 -13 0 -15 -22 -15 -140z"/>
<path d="M6410 420 l0 -140 95 0 c78 0 95 3 95 15 0 12 -15 15 -79 15 -79 0
-79 0 -86 29 -3 16 -3 40 1 55 6 25 9 26 70 26 50 0 64 3 64 15 0 12 -14 15
-64 15 -56 0 -66 3 -71 20 -3 11 -3 29 0 40 6 18 15 20 86 20 64 0 79 3 79 15
0 12 -17 15 -95 15 l-95 0 0 -140z"/>
<path d="M6790 546 c0 -8 -5 -16 -12 -18 -6 -2 -11 -19 -11 -38 0 -19 5 -36
11 -38 7 -2 12 -10 12 -18 0 -10 13 -14 45 -14 25 0 45 -4 45 -10 0 -5 11 -12
25 -16 21 -5 25 -12 25 -45 l0 -39 -61 0 c-46 0 -65 4 -74 17 -7 9 -17 13 -23
9 -16 -10 -15 -26 2 -26 8 0 16 -7 20 -15 4 -11 22 -15 71 -15 51 0 65 3 65
15 0 8 7 15 15 15 12 0 15 13 15 55 0 52 -1 55 -26 55 -14 0 -32 7 -40 15 -9
8 -27 15 -40 15 -14 0 -34 9 -46 20 l-22 20 22 20 c17 16 35 20 87 20 49 0 66
3 63 13 -3 8 -32 13 -86 15 -67 2 -82 0 -82 -12z"/>
<path d="M90 380 l0 -150 2043 0 2042 0 0 150 0 150 -2042 0 -2043 0 0 -150z"/>
</g>
</svg>
